<?xml version="1.0" standalone="no"?>
<!DOCTYPE svg PUBLIC "-//W3C//DTD SVG 20010904//EN"
 "http://www.w3.org/TR/2001/REC-SVG-20010904/DTD/svg10.dtd">
<svg version="1.0" xmlns="http://www.w3.org/2000/svg"
 width="144.000000pt" height="144.000000pt" viewBox="0 0 144.000000 144.000000"
 preserveAspectRatio="xMidYMid meet">
<metadata>
Created by potrace 1.11, written by Peter Selinger 2001-2013
</metadata>
<g transform="translate(0.000000,144.000000) scale(0.100000,-0.100000)"
fill="#000000" stroke="none">
<path d="M599 1406 c-2 -2 -20 -6 -39 -9 -141 -20 -171 -54 -173 -201 l-2 -91
165 -5 c138 -4 165 -7 165 -20 0 -13 -38 -16 -260 -20 -185 -4 -266 -9 -282
-18 -13 -7 -23 -10 -23 -7 0 3 -16 -12 -35 -34 -70 -77 -99 -237 -70 -386 15
-79 43 -155 56 -155 5 0 9 -7 9 -16 0 -8 4 -13 9 -10 5 4 11 2 13 -3 7 -20 76
-39 146 -39 l72 -1 1 97 c1 53 1 100 0 105 0 4 4 7 10 7 5 0 8 4 5 9 -9 14 51
89 86 108 48 25 48 25 238 28 96 2 191 4 210 4 53 1 113 45 135 98 16 38 18
69 16 230 -2 220 -7 234 -87 290 -17 12 -60 27 -95 32 -61 10 -261 15 -270 7z"/>
<path d="M1089 1043 c0 -10 -2 -54 -3 -98 -2 -54 -9 -91 -21 -115 -21 -41 -67
-90 -86 -94 -8 -1 -24 -8 -37 -15 -16 -8 -79 -12 -215 -12 -212 0 -251 -6
-289 -46 -39 -41 -51 -79 -52 -163 -1 -41 -5 -81 -10 -89 -6 -9 -5 -12 1 -8 7
4 10 -31 10 -101 0 -143 19 -179 118 -223 115 -51 268 -56 393 -13 120 40 149
79 151 204 l2 86 -161 -1 c-89 0 -164 4 -167 8 -15 24 28 28 260 28 136 0 262
5 281 10 46 13 84 65 112 154 29 92 34 149 23 239 -11 82 -23 125 -51 181 -32
66 -59 79 -165 83 -85 4 -93 2 -94 -15z"/>
</g>
</svg>
